<?xml version="1.0" encoding="UTF-8" standalone="no"?>
<!-- Created with Inkscape (http://www.inkscape.org/) -->

<svg
   xmlns:dc="http://purl.org/dc/elements/1.1/"
   xmlns:cc="http://creativecommons.org/ns#"
   xmlns:rdf="http://www.w3.org/1999/02/22-rdf-syntax-ns#"
   xmlns:svg="http://www.w3.org/2000/svg"
   xmlns="http://www.w3.org/2000/svg"
   xmlns:sodipodi="http://sodipodi.sourceforge.net/DTD/sodipodi-0.dtd"
   xmlns:inkscape="http://www.inkscape.org/namespaces/inkscape"
   width="1000"
   height="385.29587"
   viewBox="0 0 1000 385.29586"
   id="svg2"
   version="1.1"
   inkscape:version="0.91 r13725"
   sodipodi:docname="bit2me-blue.svg">
  <defs
     id="defs4" />
  <sodipodi:namedview
     id="base"
     pagecolor="#ffffff"
     bordercolor="#666666"
     borderopacity="1.0"
     inkscape:pageopacity="0.0"
     inkscape:pageshadow="2"
     inkscape:zoom="0.70710678"
     inkscape:cx="460.10526"
     inkscape:cy="516.2607"
     inkscape:document-units="px"
     inkscape:current-layer="layer1"
     showgrid="false"
     units="px"
     showguides="true"
     inkscape:guide-bbox="true"
     inkscape:window-width="1920"
     inkscape:window-height="1018"
     inkscape:window-x="-8"
     inkscape:window-y="-8"
     inkscape:window-maximized="1"
     fit-margin-top="0"
     fit-margin-left="0"
     fit-margin-right="0"
     fit-margin-bottom="0"
     inkscape:showpageshadow="false">
    <sodipodi:guide
       position="477.47385,333.97405"
       orientation="0,1"
       id="guide4234" />
    <sodipodi:guide
       position="479.19743,51.341272"
       orientation="0,1"
       id="guide4236" />
    <sodipodi:guide
       position="51.442018,157.81608"
       orientation="1,0"
       id="guide4238" />
    <sodipodi:guide
       position="429.79687,-0.0010080067"
       orientation="0,1"
       id="guide4258" />
    <sodipodi:guide
       position="948.64451,167.3123"
       orientation="1,0"
       id="guide4260" />
    <sodipodi:guide
       position="1000,161.26461"
       orientation="1,0"
       id="guide4262" />
    <sodipodi:guide
       position="1.6913414e-010,109.46765"
       orientation="1,0"
       id="guide4266" />
    <sodipodi:guide
       position="1.6913414e-010,296.36729"
       orientation="1,0"
       id="guide4268" />
    <sodipodi:guide
       position="46.071429,385.29586"
       orientation="0,1"
       id="guide4270" />
  </sodipodi:namedview>
  <metadata
     id="metadata7">
    <rdf:RDF>
      <cc:Work
         rdf:about="">
        <dc:format>image/svg+xml</dc:format>
        <dc:type
           rdf:resource="http://purl.org/dc/dcmitype/StillImage" />
        <dc:title></dc:title>
      </cc:Work>
    </rdf:RDF>
  </metadata>
  <g
     inkscape:label="Capa 1"
     inkscape:groupmode="layer"
     id="layer1"
     transform="translate(0.0043489,-0.07016416)">
    <g
       id="Capa_1_1_"
       transform="matrix(32.638026,0,0,32.638026,17.118914,17.19515)"
       inkscape:export-xdpi="90"
       inkscape:export-ydpi="90">
      <g
         id="g4235"
         transform="matrix(1.0406113,0,0,1.0406113,-0.29404935,0.65286845)">
        <g
           transform="matrix(0.91095259,0,0,0.91095259,1.2922686,0.38011033)"
           id="g4149">
          <g
             id="g4151">
            <path
               style="fill:#294d9a"
               inkscape:connector-curvature="0"
               d="m 3.411,5.382 c 0,1.031 -0.57,1.715 -1.447,1.715 -0.406,0 -0.738,-0.176 -0.959,-0.489 l 0,0.452 -1.005,0 0,-4.66 1.005,0 0,1.721 c 0.221,-0.308 0.54,-0.484 0.936,-0.484 0.883,0 1.47,0.697 1.47,1.745 M 2.4,5.352 C 2.4,4.837 2.115,4.473 1.696,4.473 1.29,4.473 1.005,4.837 1.005,5.352 1.005,5.878 1.29,6.237 1.696,6.237 2.115,6.236 2.4,5.873 2.4,5.352"
               id="path4153" />
          </g>
          <g
             id="g4155">
            <path
               style="fill:#294d9a"
               inkscape:connector-curvature="0"
               d="m 4.985,2.702 c 0,0.339 -0.221,0.578 -0.528,0.578 -0.309,0 -0.529,-0.238 -0.529,-0.578 0,-0.333 0.221,-0.571 0.529,-0.571 0.308,0 0.528,0.238 0.528,0.571 m -1.034,0.973 1,0 0,3.385 -1,0 0,-3.385 z"
               id="path4157" />
          </g>
          <g
             id="g4159">
            <path
               style="fill:#294d9a"
               inkscape:connector-curvature="0"
               d="M 7.781,6.876 C 7.554,7.021 7.246,7.11 6.944,7.11 6.34,7.11 5.904,6.74 5.904,6.037 l 0,-1.495 -0.436,0 0,-0.71 0.437,0 0,-0.942 0.999,0 0,0.936 0.819,0 0,0.716 -0.82,0 0,1.325 c 0,0.264 0.104,0.377 0.29,0.369 0.105,0 0.239,-0.043 0.39,-0.113 l 0.198,0.753 z"
               id="path4161" />
          </g>
          <g
             id="g4163">
            <path
               style="fill:#294d9a"
               inkscape:connector-curvature="0"
               d="m 25.225,4.818 0,2.221 -1.027,0 0,-1.907 c 0,-0.418 -0.215,-0.673 -0.555,-0.673 -0.391,0.013 -0.629,0.359 -0.629,0.835 l 0,1.744 -1.034,0 0,-1.906 C 21.98,4.714 21.771,4.459 21.431,4.459 21.035,4.472 20.79,4.818 20.79,5.294 l 0,1.744 -1.027,0 0,-3.52 1.027,0 0,0.582 c 0.221,-0.418 0.592,-0.627 1.063,-0.634 0.525,0 0.914,0.3 1.076,0.797 0.209,-0.523 0.604,-0.791 1.135,-0.797 0.707,0 1.161,0.53 1.161,1.352"
               id="path4165" />
          </g>
          <g
             id="g4167">
            <path
               style="fill:#294d9a"
               inkscape:connector-curvature="0"
               d="m 28.994,5.583 -2.266,0 c 0.103,0.418 0.377,0.652 0.76,0.652 0.279,0 0.555,-0.124 0.771,-0.359 l 0.544,0.582 c -0.328,0.392 -0.813,0.619 -1.404,0.619 -1.051,0 -1.709,-0.718 -1.709,-1.789 0,-1.091 0.683,-1.811 1.681,-1.811 1.133,0.002 1.693,0.819 1.623,2.106 M 28.002,4.975 c 0,-0.431 -0.251,-0.711 -0.621,-0.711 -0.357,0 -0.604,0.287 -0.669,0.711 l 1.29,0 z"
               id="path4169" />
          </g>
          <g
             id="g4171">
            <g
               id="g4173">
              <path
                 style="fill:#294d9a"
                 inkscape:connector-curvature="0"
                 d="M 12.224,8.852 C 9.912,8 8.699,5.498 9.462,3.153 10.241,0.759 12.823,-0.555 15.218,0.224 17.637,1.014 18.927,3.58 18.147,5.98 17.768,7.141 16.961,8.084 15.876,8.636 14.789,9.189 13.552,9.286 12.392,8.907 12.334,8.891 12.278,8.873 12.224,8.852 M 15.249,0.649 C 15.198,0.63 15.148,0.613 15.098,0.596 12.909,-0.117 10.546,1.084 9.833,3.274 9.118,5.468 10.296,7.818 12.511,8.537 13.572,8.883 14.703,8.795 15.698,8.289 16.691,7.783 17.429,6.922 17.775,5.86 18.473,3.717 17.363,1.428 15.249,0.649"
                 id="path4175" />
            </g>
            <g
               id="g4177">
              <path
                 style="fill:#294d9a"
                 inkscape:connector-curvature="0"
                 d="M 11.499,1.758 C 11.356,2.195 10.889,2.433 10.453,2.291 10.017,2.149 9.779,1.681 9.921,1.246 c 0.142,-0.436 0.61,-0.674 1.046,-0.532 0.435,0.14 0.674,0.608 0.532,1.044"
                 id="path4179" />
            </g>
            <g
               id="g4181">
              <path
                 style="fill:#294d9a"
                 inkscape:connector-curvature="0"
                 d="M 14.14,4.13 C 14.252,3.971 14.308,3.818 14.308,3.671 14.308,3.523 14.259,3.4 14.162,3.3 14.064,3.2 13.94,3.151 13.788,3.151 c -0.279,0 -0.544,0.199 -0.794,0.596 L 12.201,3.277 C 12.409,2.956 12.636,2.713 12.884,2.548 13.131,2.382 13.445,2.3 13.829,2.3 c 0.383,0 0.72,0.122 1.009,0.365 0.289,0.244 0.436,0.574 0.436,0.993 0,0.229 -0.06,0.447 -0.176,0.657 -0.116,0.21 -0.331,0.477 -0.644,0.804 l -0.8,0.83 1.752,0 0,0.889 -3.129,0 0,-0.738 1.301,-1.333 C 13.841,4.501 14.028,4.289 14.14,4.13 Z"
                 id="path4183" />
            </g>
            <g
               id="g4185">
              <path
                 style="fill:#294d9a"
                 inkscape:connector-curvature="0"
                 d="M 15.723,7.667 C 15.686,7.63 15.696,7.587 15.745,7.57 l 1.662,-0.56 c 0.05,-0.018 0.075,0.01 0.06,0.059 L 16.9,8.731 c -0.018,0.05 -0.061,0.06 -0.098,0.022 L 15.723,7.667 Z"
                 id="path4187" />
            </g>
          </g>
        </g>
      </g>
    </g>
  </g>
</svg>
